# xmcd CD database file
#
# Track frame offsets:
#	150
#	19723
#	39773
#	62077
#	87547
#	115379
#	143111
#	160663
#	179960
#	209704
#	234200
#	251111
#
# Disc length: 3650 seconds
#
# Revision: 1
# Processed by: cddbd v1.5.1PL0 Copyright (c) Steve Scherf et al.
# Submitted via: CDex 1.51
#
DISCID=a90e400c
DTITLE=David Maxwell - Max Attack
DYEAR=2003
DGENRE=Blues
TTITLE0=Max Attack
TTITLE1=Hip=House Rock
TTITLE2=Long Distance Driver
TTITLE3=Moving Out Of His World
TTITLE4=Thanks For All The Women
TTITLE5=Handyman
TTITLE6=What's The Use (Of A Broken Heart)
TTITLE7=Sticky Buns
TTITLE8=Backseat Of A Greyhound Bus
TTITLE9=Coming Home, Baby
TTITLE10=Twisted Tendons
TTITLE11=Thank You Pinetop Perkins
EXTD=YEAR: 2003
EXTT0=
EXTT1=
EXTT2=
EXTT3=
EXTT4=
EXTT5=
EXTT6=
EXTT7=
EXTT8=
EXTT9=
EXTT10=
EXTT11=
PLAYORDER=
